<svg width="430" height="932" viewBox="0 0 430 932" fill="none" xmlns="http://www.w3.org/2000/svg">
<g clip-path="url(#clip0_18_224)">
<rect width="430" height="932" fill="url(#paint0_linear_18_224)"/>
<rect x="28" y="713" width="375" height="55.1471" rx="27.5735" fill="white"/>
<path d="M148.322 751.522C153.423 751.522 157.228 748.517 157.945 743.967H153.312C152.761 745.98 150.914 747.221 148.404 747.221C145.123 747.221 143.083 744.822 143.083 740.989C143.083 737.101 145.096 734.757 148.404 734.757C150.858 734.757 152.596 735.915 153.202 737.956H157.917C157.283 733.379 153.616 730.456 148.515 730.456C142.421 730.456 138.368 734.647 138.368 741.017C138.368 747.469 142.2 751.522 148.322 751.522ZM159.664 744.27C159.664 748.627 162.862 751.522 167.274 751.522C171.658 751.522 174.857 748.627 174.857 744.27C174.857 739.914 171.658 736.991 167.274 736.991C162.862 736.991 159.664 739.914 159.664 744.27ZM163.938 744.243C163.938 742.175 165.289 740.796 167.274 740.796C169.232 740.796 170.583 742.175 170.583 744.243C170.583 746.338 169.232 747.717 167.274 747.717C165.289 747.717 163.938 746.338 163.938 744.243ZM181.565 751.191V743.636C181.565 741.926 182.64 740.824 184.322 740.824C185.784 740.824 186.749 741.954 186.749 743.691V751.191H190.995V742.671C190.995 739.059 189.093 736.963 185.811 736.963C184.019 736.963 182.447 737.653 181.593 738.838L181.317 737.404H177.319V751.191H181.565ZM198.287 751.191V743.636C198.287 741.926 199.362 740.824 201.044 740.824C202.506 740.824 203.471 741.954 203.471 743.691V751.191H207.717V742.671C207.717 739.059 205.814 736.963 202.533 736.963C200.741 736.963 199.169 737.653 198.314 738.838L198.039 737.404H194.041V751.191H198.287ZM217.159 751.55C220.937 751.55 223.667 749.592 224.163 746.531H220.275C219.972 747.524 218.841 748.103 217.242 748.103C215.367 748.103 214.347 747.248 214.099 745.428L224.108 745.373V744.298C224.108 739.803 221.406 736.963 217.077 736.963C212.913 736.963 210.018 739.969 210.018 744.27C210.018 748.517 212.996 751.55 217.159 751.55ZM217.104 740.41C218.814 740.41 219.889 741.347 219.889 742.809H214.154C214.485 741.154 215.422 740.41 217.104 740.41ZM229.424 751.191L231.74 747.221L234.112 751.191H238.992L234.608 744.436L239.158 737.404H234.415L232.044 741.596L229.507 737.404H224.599L229.231 744.518L224.599 751.191H229.424ZM243.124 735.254C244.448 735.254 245.523 734.178 245.523 732.827C245.523 731.476 244.448 730.428 243.124 730.428C241.773 730.428 240.698 731.476 240.698 732.827C240.698 734.178 241.773 735.254 243.124 735.254ZM241.029 751.191H245.275V737.404H241.029V751.191ZM247.716 744.27C247.716 748.627 250.915 751.522 255.326 751.522C259.711 751.522 262.909 748.627 262.909 744.27C262.909 739.914 259.711 736.991 255.326 736.991C250.915 736.991 247.716 739.914 247.716 744.27ZM251.99 744.243C251.99 742.175 253.341 740.796 255.326 740.796C257.284 740.796 258.635 742.175 258.635 744.243C258.635 746.338 257.284 747.717 255.326 747.717C253.341 747.717 251.99 746.338 251.99 744.243ZM269.617 751.191V743.636C269.617 741.926 270.693 740.824 272.375 740.824C273.836 740.824 274.801 741.954 274.801 743.691V751.191H279.047V742.671C279.047 739.059 277.145 736.963 273.864 736.963C272.071 736.963 270.5 737.653 269.645 738.838L269.369 737.404H265.371V751.191H269.617Z" fill="#252525"/>
<path d="M172.492 796.764H169.786V809.125H172.492V796.764ZM177.327 809.125V804.548C177.327 803.512 177.978 802.844 178.997 802.844C179.883 802.844 180.467 803.529 180.467 804.581V809.125H183.04V803.963C183.04 801.775 181.887 800.505 179.899 800.505C178.814 800.505 177.861 800.923 177.344 801.641L177.177 800.773H174.754V809.125H177.327ZM184.186 806.486C184.186 808.173 185.572 809.342 187.777 809.342C189.949 809.342 191.469 808.256 191.469 806.469C191.469 805.133 190.717 804.498 189.347 804.197L187.794 803.863C187.209 803.729 186.892 803.512 186.892 803.128C186.892 802.677 187.259 802.376 187.844 802.376C188.462 802.376 188.813 802.761 188.813 803.328H191.252C191.252 801.641 189.899 800.505 187.961 800.505C185.956 800.505 184.47 801.508 184.47 803.245C184.47 804.715 185.221 805.383 186.758 805.717L188.295 806.051C188.913 806.185 189.047 806.452 189.047 806.703C189.047 807.137 188.679 807.421 187.877 807.421C187.092 807.421 186.658 807.07 186.624 806.486H184.186ZM192.362 804.915C192.362 807.588 194.066 809.342 196.705 809.342C199.044 809.342 200.748 807.906 200.915 805.801H198.326C198.159 806.619 197.607 807.037 196.705 807.037C195.603 807.037 194.951 806.252 194.951 804.915C194.951 803.629 195.653 802.811 196.739 802.811C197.624 802.811 198.142 803.212 198.326 804.047H200.915C200.748 801.858 199.111 800.505 196.638 800.505C194.133 800.505 192.362 802.343 192.362 804.915ZM208.07 800.773C207.719 800.689 207.385 800.656 207.084 800.656C205.965 800.656 205.23 801.207 204.879 802.026L204.746 800.789H202.324V809.125H204.896V805.5C204.896 803.846 205.781 803.195 207.252 803.195H208.07V800.773ZM210.64 799.47C211.442 799.47 212.094 798.818 212.094 798C212.094 797.181 211.442 796.546 210.64 796.546C209.822 796.546 209.17 797.181 209.17 798C209.17 798.818 209.822 799.47 210.64 799.47ZM209.371 809.125H211.943V800.773H209.371V809.125ZM213.873 813.134H216.446V808.29C216.93 808.925 217.999 809.359 219.152 809.359C221.641 809.359 223.078 807.455 223.078 804.815C223.078 802.126 221.457 800.505 219.135 800.505C217.949 800.505 216.897 801.023 216.429 801.792L216.296 800.773H213.873V813.134ZM216.463 804.949C216.463 803.696 217.298 802.861 218.501 802.861C219.72 802.861 220.488 803.713 220.488 804.949C220.488 806.185 219.72 807.037 218.501 807.037C217.298 807.037 216.463 806.202 216.463 804.949ZM227.851 809.125V802.911H229.438V800.773H227.851V798.183H225.279V800.773H223.692V802.911H225.279V809.125H227.851ZM231.864 799.47C232.666 799.47 233.317 798.818 233.317 798C233.317 797.181 232.666 796.546 231.864 796.546C231.045 796.546 230.394 797.181 230.394 798C230.394 798.818 231.045 799.47 231.864 799.47ZM230.594 809.125H233.167V800.773H230.594V809.125ZM234.646 804.932C234.646 807.571 236.584 809.325 239.256 809.325C241.912 809.325 243.85 807.571 243.85 804.932C243.85 802.293 241.912 800.522 239.256 800.522C236.584 800.522 234.646 802.293 234.646 804.932ZM237.235 804.915C237.235 803.663 238.054 802.827 239.256 802.827C240.442 802.827 241.261 803.663 241.261 804.915C241.261 806.185 240.442 807.02 239.256 807.02C238.054 807.02 237.235 806.185 237.235 804.915ZM247.914 809.125V804.548C247.914 803.512 248.565 802.844 249.584 802.844C250.47 802.844 251.054 803.529 251.054 804.581V809.125H253.627V803.963C253.627 801.775 252.474 800.505 250.487 800.505C249.401 800.505 248.449 800.923 247.931 801.641L247.764 800.773H245.341V809.125H247.914ZM254.773 806.486C254.773 808.173 256.159 809.342 258.364 809.342C260.536 809.342 262.056 808.256 262.056 806.469C262.056 805.133 261.304 804.498 259.934 804.197L258.381 803.863C257.796 803.729 257.479 803.512 257.479 803.128C257.479 802.677 257.846 802.376 258.431 802.376C259.049 802.376 259.4 802.761 259.4 803.328H261.839C261.839 801.641 260.486 800.505 258.548 800.505C256.543 800.505 255.057 801.508 255.057 803.245C255.057 804.715 255.808 805.383 257.345 805.717L258.882 806.051C259.5 806.185 259.634 806.452 259.634 806.703C259.634 807.137 259.266 807.421 258.464 807.421C257.679 807.421 257.245 807.07 257.212 806.486H254.773Z" fill="black"/>
<path d="M168.5 813.051H262.423V814.387H168.5V813.051Z" fill="black"/>
<path d="M429 579.864H-1V580.079H429V579.864Z" fill="#EBEBEB"/>
<path d="M385.914 593.701H357.431V593.916H385.914V593.701Z" fill="#EBEBEB"/>
<path d="M283.849 596.041H276.376V596.256H283.849V596.041Z" fill="#EBEBEB"/>
<path d="M356.571 585.721H340.067V585.936H356.571V585.721Z" fill="#EBEBEB"/>
<path d="M81.2589 587.165H44.1155V587.38H81.2589V587.165Z" fill="#EBEBEB"/>
<path d="M94.3654 587.165H88.9216V587.38H94.3654V587.165Z" fill="#EBEBEB"/>
<path d="M192.629 590.795H112.064V591.01H192.629V590.795Z" fill="#EBEBEB"/>
<path d="M172.978 505.319H256.647V319.533H172.978L172.978 505.319Z" fill="#E6E6E6"/>
<path d="M167.87 505.319H251.539L251.539 319.533H167.87L167.87 505.319Z" fill="#F5F5F5"/>
<path d="M242.363 496.951V327.893H177.046V496.951H242.363Z" fill="white"/>
<path d="M180.907 496.96V327.901H177.046V496.96H180.907Z" fill="#E6E6E6"/>
<path d="M171.662 457.985H247.738V446.753H171.662V457.985Z" fill="#F5F5F5"/>
<path d="M171.662 353.882H247.738V342.65H171.662V353.882Z" fill="#F5F5F5"/>
<path d="M60.1719 505.319H143.841L143.841 319.533H60.1719L60.1719 505.319Z" fill="#E6E6E6"/>
<path d="M55.0721 505.319H138.741L138.741 319.533H55.0721L55.0721 505.319Z" fill="#F5F5F5"/>
<path d="M129.557 496.96V327.901H64.2396L64.2396 496.96H129.557Z" fill="white"/>
<path d="M68.1096 496.96L68.1096 327.901H64.2482L64.2482 496.96H68.1096Z" fill="#E6E6E6"/>
<path d="M58.8646 457.985H134.94V446.753H58.8646V457.985Z" fill="#F5F5F5"/>
<path d="M58.8646 353.882H134.94V342.65H58.8646V353.882Z" fill="#F5F5F5"/>
<path d="M285.776 505.319H369.445V319.533H285.776V505.319Z" fill="#E6E6E6"/>
<path d="M280.667 505.319H364.337V319.533H280.667V505.319Z" fill="#F5F5F5"/>
<path d="M355.16 496.96V327.901H289.843V496.96H355.16Z" fill="white"/>
<path d="M293.713 496.96V327.901H289.852V496.96H293.713Z" fill="#E6E6E6"/>
<path d="M284.46 457.985H360.535V446.753H284.46V457.985Z" fill="#F5F5F5"/>
<path d="M284.46 353.882H360.535V342.65H284.46V353.882Z" fill="#F5F5F5"/>
<path d="M194.375 531.455H46.9192V579.864H194.375V531.455Z" fill="#F5F5F5"/>
<path d="M194.366 579.864H217.87V531.455H194.366V579.864Z" fill="#E6E6E6"/>
<path d="M203.534 531.455H44.1929C43.0776 531.455 42.0079 531.012 41.2193 530.223C40.4306 529.434 39.9875 528.365 39.9875 527.249C39.9875 526.134 40.4306 525.064 41.2193 524.275C42.0079 523.487 43.0776 523.044 44.1929 523.044H203.534V531.455Z" fill="#EBEBEB"/>
<path d="M191.778 531.455H217.87V523.044H191.778C190.662 523.044 189.593 523.487 188.804 524.275C188.015 525.064 187.572 526.134 187.572 527.249C187.572 528.365 188.015 529.434 188.804 530.223C189.593 531.012 190.662 531.455 191.778 531.455Z" fill="#E0E0E0"/>
<path d="M353.415 531.455H205.959V579.864H353.415V531.455Z" fill="#F5F5F5"/>
<path d="M353.415 579.864H376.918V531.455H353.415V579.864Z" fill="#E6E6E6"/>
<path d="M362.574 531.455H203.233C202.117 531.455 201.048 531.012 200.259 530.223C199.47 529.434 199.027 528.365 199.027 527.249C199.027 526.134 199.47 525.064 200.259 524.275C201.048 523.487 202.117 523.044 203.233 523.044H362.574V531.455Z" fill="#EBEBEB"/>
<path d="M350.826 531.455H376.918V523.044H350.826C349.711 523.044 348.641 523.487 347.852 524.275C347.064 525.064 346.621 526.134 346.621 527.249C346.621 528.365 347.064 529.434 347.852 530.223C348.641 531.012 349.711 531.455 350.826 531.455Z" fill="#E0E0E0"/>
<path d="M214 618.702C306.091 618.702 380.745 614.343 380.745 608.966C380.745 603.59 306.091 599.231 214 599.231C121.909 599.231 47.2546 603.59 47.2546 608.966C47.2546 614.343 121.909 618.702 214 618.702Z" fill="#F5F5F5" fill-opacity="0.8"/>
<path d="M234.941 597.812L228.336 596.256L231.991 580.397L238.587 581.954L234.941 597.812Z" fill="#B55B52"/>
<path d="M285.612 601.914H278.715L277.898 585.927H284.804L285.612 601.914Z" fill="#B55B52"/>
<path d="M277.58 601.115H285.999C286.136 601.115 286.268 601.163 286.375 601.249C286.481 601.335 286.555 601.454 286.584 601.588L287.96 607.728C287.991 607.877 287.988 608.032 287.951 608.18C287.914 608.328 287.844 608.466 287.747 608.583C287.649 608.701 287.527 608.794 287.388 608.858C287.249 608.921 287.098 608.952 286.945 608.949C284.245 608.906 282.267 608.743 278.853 608.743C276.754 608.743 272.145 608.966 269.246 608.966C266.348 608.966 265.97 606.103 267.157 605.836C272.471 604.675 274.768 603.075 276.47 601.536C276.779 601.268 277.172 601.119 277.58 601.115Z" fill="#263238"/>
<path d="M228.027 595.447L235.371 597.167C235.504 597.2 235.621 597.276 235.706 597.384C235.79 597.491 235.836 597.624 235.835 597.761L235.767 604.047C235.766 604.199 235.731 604.349 235.663 604.486C235.596 604.623 235.499 604.742 235.379 604.836C235.259 604.929 235.119 604.994 234.97 605.026C234.821 605.058 234.667 605.055 234.52 605.019C231.879 604.357 228.087 603.299 224.759 602.525C220.871 601.622 220.794 601.768 216.227 600.702C213.467 600.057 213.355 597.09 214.568 597.107C220.097 597.184 221.086 597.339 226.289 595.602C226.842 595.388 227.444 595.335 228.027 595.447Z" fill="#263238"/>
<path d="M263.579 389.219C260.449 393.442 257.499 397.69 254.644 402.068C253.216 404.261 251.806 406.462 250.455 408.707C249.105 410.951 247.746 413.222 246.474 415.587L245.992 416.447L245.751 416.885L245.381 417.625C245.069 418.296 244.844 419.004 244.711 419.732C244.504 420.857 244.596 422.016 244.977 423.095C245.405 424.245 246.165 425.242 247.162 425.958C247.809 426.428 248.53 426.788 249.294 427.025L255.77 418.812C258.178 415.165 260.698 411.528 263.252 407.898L272.05 395.368L263.579 389.219Z" fill="#B65B52"/>
<path opacity="0.2" d="M231.991 580.397L230.108 588.576L236.713 590.132L238.596 581.962L231.991 580.397Z" fill="black"/>
<path d="M276.539 390.716C278.414 397.045 267.329 409.18 267.329 409.18L253.913 400.64C256.329 396.646 258.982 392.801 261.859 389.125C267.526 381.763 274.269 383.053 276.539 390.716Z" fill="#A8DFF1"/>
<path opacity="0.4" d="M276.539 390.716C278.414 397.045 267.329 409.18 267.329 409.18L253.913 400.64C256.329 396.646 258.982 392.801 261.859 389.125C267.526 381.763 274.269 383.053 276.539 390.716Z" fill="black"/>
<path opacity="0.2" d="M284.804 585.936H277.898L278.319 594.174H285.225L284.804 585.936Z" fill="black"/>
<path d="M304.73 393.124C296.637 417.728 295.941 443.313 295.124 448.662C289.74 448.095 269.47 445.91 258.419 444.715C255.495 412.121 263.699 392.178 266.632 386.235C266.916 385.655 267.346 385.159 267.88 384.796C268.414 384.433 269.033 384.214 269.676 384.162C270.631 384.085 271.869 384.008 273.263 383.965C274.277 383.965 275.37 383.913 276.505 383.965C277.133 383.965 277.769 383.965 278.414 384.033C283.641 384.475 288.839 385.219 293.98 386.261C294.952 386.45 295.941 386.665 296.887 386.889C297.833 387.112 298.607 387.327 299.467 387.551C300.49 387.835 301.462 388.118 302.313 388.411C302.782 388.56 303.217 388.801 303.593 389.119C303.969 389.437 304.278 389.826 304.502 390.264C304.727 390.702 304.863 391.18 304.902 391.671C304.941 392.162 304.882 392.656 304.73 393.124Z" fill="#A8DFF1"/>
<path opacity="0.3" d="M304.73 393.124C296.637 417.728 295.941 443.313 295.124 448.662C289.74 448.095 269.47 445.91 258.419 444.715C255.495 412.121 263.699 392.178 266.632 386.235C266.916 385.655 267.346 385.159 267.88 384.796C268.414 384.433 269.033 384.214 269.676 384.162C270.631 384.085 271.869 384.008 273.263 383.965C274.277 383.965 275.37 383.913 276.505 383.965C277.133 383.965 277.769 383.965 278.414 384.033C283.641 384.475 288.839 385.219 293.98 386.261C294.952 386.45 295.941 386.665 296.887 386.889C297.833 387.112 298.607 387.327 299.467 387.551C300.49 387.835 301.462 388.118 302.313 388.411C302.782 388.56 303.217 388.801 303.593 389.119C303.969 389.437 304.278 389.826 304.502 390.264C304.727 390.702 304.863 391.18 304.902 391.671C304.941 392.162 304.882 392.656 304.73 393.124Z" fill="black"/>
<path d="M276.238 383.947H276.505C277.133 383.947 277.769 383.947 278.414 384.008C283.641 384.462 288.838 385.215 293.98 386.261C294.728 386.407 295.476 386.57 296.216 386.742L295.003 387.602C291.426 390.26 287.263 392.659 281.467 392.255L280.719 392.195C277.752 391.868 275.911 390.767 275.241 388.901C275.006 388.055 274.973 387.166 275.147 386.305C275.32 385.444 275.694 384.636 276.238 383.947Z" fill="#A8DFF1"/>
<path d="M294.943 368.545C293.223 373.404 290.927 382.417 293.946 386.261C290.832 388.566 286.833 391.171 280.865 390.518C274.897 389.864 276.565 385.934 278.414 384.008C284.176 383.483 284.632 379.329 284.228 375.304L294.943 368.545Z" fill="#B55B52"/>
<path opacity="0.2" d="M290.54 371.305L284.193 375.296C284.304 376.235 284.33 377.182 284.271 378.125C286.446 378.125 289.714 376.216 290.291 374.014C290.533 373.133 290.617 372.216 290.54 371.305Z" fill="black"/>
<path d="M283.944 361.175L286.481 361.519C289.732 361.441 295.726 354.897 293.576 349.238C286.309 347.982 278.698 351.568 283.944 361.175Z" fill="#263238"/>
<path d="M299.794 364.718C296.242 370.566 294.453 374.178 289.766 375.674C282.705 377.919 276.694 371.219 278.431 364.417C279.996 358.302 285.552 349.797 292.742 350.468C294.328 350.616 295.851 351.167 297.164 352.07C298.478 352.972 299.538 354.196 300.245 355.624C300.952 357.053 301.281 358.638 301.202 360.23C301.123 361.822 300.638 363.366 299.794 364.718Z" fill="#B55B52"/>
<path d="M303.922 356.109L301.342 356.169C298.151 356.771 293.275 364.185 296.311 369.431C303.586 370.678 312.47 363.901 303.922 356.109Z" fill="#263238"/>
<path d="M299.501 358.56C292.914 357.167 286.515 349.599 286.842 344.912C287.186 339.958 294.143 342.573 295.442 344.138C295.236 341.403 297.162 342.048 298.478 343.725C299.794 345.402 301.436 351.465 306.398 355.851C309.718 358.784 307.043 360.16 299.501 358.56Z" fill="#263238"/>
<path d="M305.495 358.5C305.495 358.5 308.239 359.601 308.884 358.715C309.391 360.616 307.405 360.383 305.495 358.5Z" fill="#263238"/>
<path d="M299.02 372.819C298.28 373.248 297.464 373.526 296.617 373.639C295.769 373.751 294.908 373.694 294.083 373.473C291.882 372.871 291.959 370.617 293.55 369.173C294.978 367.848 297.85 366.593 299.57 367.969C301.29 369.345 300.86 371.753 299.02 372.819Z" fill="#B55B52"/>
<path d="M259.227 518.46C263.605 503.754 282.551 447.329 282.551 447.329L258.419 444.749C258.419 444.749 244.659 495.145 241.219 515.923C237.581 537.526 227.794 584.981 227.794 584.981L239.594 588.232C239.594 588.232 254.841 533.149 259.227 518.46Z" fill="#A8DFF1"/>
<path opacity="0.2" d="M273.555 461.279C267.595 470.549 264.525 490.914 264.319 502.344C268.232 490.304 273.314 474.987 277.107 463.583C275.98 462.731 274.793 461.96 273.555 461.279Z" fill="black"/>
<path d="M271.439 446.117C271.439 446.117 269.47 502.799 270.261 523.009C271.121 545.146 275.146 592.583 275.146 592.583H287.788C287.788 592.583 286.61 545.326 287.633 523.783C288.803 499.213 295.124 448.697 295.124 448.697L271.439 446.117Z" fill="#A8DFF1"/>
<path d="M274.105 592.85H288.992V588.404L273.349 587.69L274.105 592.85Z" fill="#A8DFF1"/>
<path opacity="0.5" d="M274.105 592.85H288.992V588.404L273.349 587.69L274.105 592.85Z" fill="white"/>
<path d="M226.427 586.357L239.989 589.53L241.013 585.144L227.235 581.18L226.427 586.357Z" fill="#A8DFF1"/>
<path opacity="0.5" d="M226.427 586.357L239.989 589.53L241.013 585.144L227.235 581.18L226.427 586.357Z" fill="white"/>
<path d="M289.732 361.57C289.474 362.069 289.001 362.327 288.674 362.155C288.347 361.983 288.304 361.45 288.562 360.96C288.82 360.469 289.293 360.203 289.62 360.375C289.947 360.547 289.99 361.08 289.732 361.57Z" fill="#263238"/>
<path d="M284.159 358.638C283.901 359.136 283.428 359.394 283.109 359.222C282.791 359.05 282.731 358.517 282.998 358.027C283.264 357.537 283.729 357.27 284.047 357.442C284.365 357.614 284.417 358.147 284.159 358.638Z" fill="#263238"/>
<path d="M285.801 359.816C284.421 361.014 282.881 362.015 281.226 362.791C281.437 363.209 281.736 363.575 282.103 363.865C282.47 364.155 282.896 364.361 283.351 364.468L285.801 359.816Z" fill="#A02724"/>
<path d="M284.735 366.885C285.319 367.107 285.941 367.208 286.565 367.183C287.188 367.158 287.8 367.007 288.364 366.739C288.383 366.729 288.4 366.715 288.414 366.698C288.428 366.681 288.439 366.662 288.445 366.641C288.451 366.621 288.454 366.599 288.452 366.577C288.449 366.555 288.443 366.534 288.433 366.515C288.423 366.496 288.409 366.479 288.392 366.465C288.376 366.451 288.356 366.441 288.335 366.435C288.315 366.428 288.293 366.426 288.271 366.428C288.25 366.43 288.229 366.436 288.209 366.446C287.579 366.736 286.89 366.874 286.197 366.849C285.504 366.823 284.826 366.635 284.219 366.3C284.181 366.282 284.138 366.279 284.098 366.292C284.058 366.304 284.024 366.332 284.004 366.369C283.992 366.387 283.985 366.408 283.982 366.429C283.979 366.45 283.981 366.472 283.988 366.493C283.994 366.513 284.005 366.532 284.02 366.548C284.035 366.564 284.053 366.576 284.073 366.584C284.286 366.7 284.507 366.801 284.735 366.885Z" fill="#263238"/>
<path d="M293.61 359.231C293.667 359.244 293.726 359.244 293.782 359.231C293.867 359.214 293.942 359.166 293.991 359.095C294.041 359.025 294.061 358.938 294.049 358.853C293.977 358.339 293.783 357.85 293.484 357.427C293.185 357.004 292.789 356.658 292.329 356.419C292.289 356.402 292.247 356.393 292.204 356.392C292.161 356.392 292.118 356.4 292.078 356.416C292.038 356.432 292.002 356.455 291.971 356.485C291.94 356.515 291.916 356.551 291.899 356.591C291.866 356.67 291.865 356.758 291.895 356.838C291.926 356.918 291.985 356.983 292.062 357.021C292.426 357.214 292.738 357.491 292.973 357.829C293.208 358.167 293.359 358.556 293.412 358.964C293.417 359.023 293.438 359.079 293.473 359.126C293.508 359.174 293.555 359.21 293.61 359.231Z" fill="#263238"/>
<path d="M285.991 355.18C285.95 355.145 285.901 355.121 285.848 355.11C285.795 355.1 285.741 355.103 285.69 355.12C285.298 355.246 284.883 355.276 284.477 355.209C284.072 355.142 283.689 354.979 283.359 354.733C283.297 354.673 283.213 354.64 283.127 354.64C283.04 354.64 282.957 354.673 282.895 354.733C282.835 354.794 282.802 354.876 282.802 354.961C282.802 355.046 282.835 355.128 282.895 355.189C283.308 355.504 283.791 355.715 284.302 355.805C284.814 355.894 285.34 355.86 285.836 355.705C285.919 355.681 285.989 355.625 286.031 355.549C286.073 355.473 286.083 355.384 286.059 355.301C286.046 355.256 286.023 355.215 285.991 355.18Z" fill="#263238"/>
<path d="M275.301 602.327C275.91 602.31 276.516 602.226 277.107 602.078C277.138 602.069 277.167 602.052 277.188 602.027C277.21 602.003 277.223 601.973 277.227 601.94C277.234 601.909 277.231 601.877 277.219 601.848C277.206 601.818 277.185 601.794 277.158 601.777C276.9 601.622 274.673 600.255 273.916 600.642C273.832 600.686 273.761 600.753 273.711 600.835C273.661 600.917 273.634 601.01 273.632 601.106C273.616 601.266 273.637 601.427 273.696 601.577C273.754 601.726 273.847 601.86 273.968 601.966C274.36 602.23 274.829 602.357 275.301 602.327ZM276.634 601.846C275.464 602.078 274.561 602.035 274.183 601.717C274.1 601.646 274.036 601.555 273.996 601.453C273.957 601.351 273.945 601.24 273.959 601.132C273.957 601.093 273.965 601.053 273.983 601.018C274.001 600.984 274.029 600.954 274.062 600.934C274.458 600.728 275.731 601.321 276.634 601.88V601.846Z" fill="#A8DFF1"/>
<path d="M277.072 602.078C277.101 602.086 277.13 602.086 277.158 602.078C277.183 602.062 277.202 602.04 277.216 602.015C277.229 601.989 277.236 601.961 277.236 601.932C277.236 601.846 277.064 599.85 276.255 599.197C276.161 599.114 276.05 599.052 275.93 599.016C275.81 598.981 275.683 598.972 275.559 598.99C275.437 598.99 275.319 599.032 275.225 599.109C275.131 599.186 275.067 599.293 275.043 599.412C274.897 600.186 276.273 601.699 276.995 602.086L277.072 602.078ZM275.679 599.3C275.817 599.299 275.949 599.352 276.049 599.446C276.55 600.06 276.851 600.814 276.909 601.605C276.195 601.063 275.318 599.885 275.404 599.472C275.404 599.429 275.404 599.326 275.645 599.3H275.722H275.679Z" fill="#A8DFF1"/>
<path d="M227.15 596.221C227.179 596.218 227.208 596.206 227.232 596.188C227.256 596.17 227.275 596.146 227.287 596.118C227.298 596.086 227.299 596.052 227.29 596.02C227.281 595.987 227.262 595.959 227.236 595.937C226.969 595.705 224.587 593.701 223.666 593.968C223.58 593.991 223.501 594.036 223.437 594.1C223.374 594.163 223.328 594.242 223.305 594.329C223.25 594.47 223.232 594.623 223.251 594.773C223.271 594.924 223.328 595.067 223.417 595.189C224.002 596.049 225.997 596.204 227.124 596.238L227.15 596.221ZM223.821 594.269C224.363 594.217 225.705 595.129 226.651 595.869C225.103 595.774 224.019 595.447 223.684 595.009C223.628 594.93 223.592 594.838 223.58 594.742C223.568 594.646 223.58 594.548 223.615 594.458C223.622 594.423 223.638 594.391 223.663 594.365C223.687 594.339 223.718 594.321 223.752 594.312L223.821 594.269Z" fill="#A8DFF1"/>
<path d="M227.149 596.221C227.175 596.209 227.198 596.191 227.216 596.169C227.234 596.146 227.246 596.12 227.253 596.092C227.253 596.015 227.502 594.157 226.814 593.254C226.712 593.119 226.583 593.008 226.434 592.926C226.286 592.845 226.122 592.795 225.954 592.781C225.507 592.721 225.335 592.91 225.257 593.082C224.956 593.813 226.229 595.662 226.977 596.195C227 596.216 227.029 596.23 227.059 596.235C227.09 596.239 227.121 596.235 227.149 596.221ZM225.825 593.091H225.997C226.116 593.104 226.232 593.143 226.335 593.203C226.439 593.264 226.529 593.346 226.599 593.443C226.962 594.147 227.1 594.946 226.995 595.731C226.289 595.034 225.464 593.641 225.644 593.203C225.653 593.168 225.679 593.099 225.825 593.091Z" fill="#A8DFF1"/>
<path d="M306.682 398.98C306.003 400.27 305.358 401.354 304.653 402.498C303.947 403.641 303.277 404.742 302.528 405.826C301.066 408.01 299.51 410.126 297.893 412.216C296.276 414.305 294.573 416.309 292.733 418.236L292.036 419.001C291.541 419.557 290.978 420.049 290.359 420.463C289.907 420.754 289.422 420.99 288.914 421.168C288.282 421.394 287.616 421.51 286.945 421.512C285.686 421.515 284.456 421.134 283.419 420.42C282.78 419.981 282.214 419.444 281.742 418.829C281.405 418.404 281.103 417.953 280.839 417.479C280.427 416.729 280.07 415.95 279.773 415.148C278.845 412.508 278.162 409.787 277.734 407.021C277.279 404.441 276.961 401.818 276.711 399.23C276.204 394.07 275.963 388.953 275.963 383.75L281.123 383.302C282.052 388.222 283.032 393.192 284.099 398.043C284.64 400.477 285.208 402.885 285.819 405.224C286.386 407.434 287.125 409.596 288.029 411.691C288.201 412.069 288.405 412.432 288.639 412.775C288.725 412.895 288.803 412.981 288.829 412.981C288.854 412.981 288.829 412.904 288.528 412.689C288.016 412.354 287.419 412.175 286.808 412.173C286.232 412.168 285.667 412.323 285.174 412.62C284.924 412.775 284.89 412.835 284.89 412.8L285.414 412.112C286.859 410.16 288.295 408.182 289.654 406.153C291.013 404.123 292.372 402.093 293.688 400.038L295.64 396.942L297.489 393.898L306.682 398.98Z" fill="#B65B52"/>
<path d="M249.26 427.025C250.24 427.319 251.255 427.484 252.279 427.515C253.815 427.566 255.352 427.473 256.871 427.24C258.29 427.033 259.64 426.767 260.973 426.474C266.162 425.257 271.241 423.614 276.161 421.564L275.043 416.61C272.549 416.989 269.668 417.384 267.165 417.72C264.663 418.055 262.169 418.399 259.726 418.58C258.505 418.691 257.301 418.777 256.14 418.795H255.736" fill="#B65B52"/>
<path d="M273.581 416.825L279.111 415.656L280.306 423.86C280.306 423.86 274.166 424.806 272.291 420.145L273.581 416.825Z" fill="#B55B52"/>
<path d="M285.346 418.201L284.288 423.232L280.306 423.843L279.111 415.656L285.346 418.201Z" fill="#B55B52"/>
<path d="M307.835 393.579C310.81 399.47 302.081 413.359 302.081 413.359L287.349 407.339C289.018 402.989 290.945 398.741 293.12 394.62C297.36 386.39 304.223 386.45 307.835 393.579Z" fill="#A8DFF1"/>
<path opacity="0.3" d="M307.835 393.579C310.81 399.47 302.081 413.359 302.081 413.359L287.349 407.339C289.018 402.989 290.945 398.741 293.12 394.62C297.36 386.39 304.223 386.45 307.835 393.579Z" fill="black"/>
<path d="M281.837 384.988L282.353 377.996L274.2 379.467C274.2 379.467 274.501 385.882 277.881 386.39L281.837 384.988Z" fill="#B55B52"/>
<path d="M279.971 371.426L273.039 373.963L274.209 379.467L282.353 377.996L279.971 371.426Z" fill="#B55B52"/>
<g clip-path="url(#clip1_18_224)">
<path d="M191.098 68.6881C190.118 68.9536 187.333 70.1993 186.887 71.6873C186.687 72.32 187.362 73.3466 187.73 73.6149C188.057 73.8592 188.869 74.4107 189.484 75.0152C189.974 75.7413 189.804 76.7515 189.086 77.279L188.737 77.5488C188.737 77.5488 174.591 88.1661 172.465 98.5756C170.49 108.296 171.296 113.389 175.811 122.174C179.314 128.99 189.473 132.607 193.067 132.607C195.255 132.425 200.234 132.313 205.824 126.591C210.11 122.222 212.854 118.376 215.826 112.943C213.733 108.742 211.464 104.607 209.36 100.427C207.931 102.567 206.992 104.241 206.701 104.793C202.672 111.915 198.035 116.94 191.592 117.792C184.037 118.805 179.971 107.62 185.19 99.9652C190.644 91.9489 193.574 89.595 196.956 86.505C197.477 86.0305 198.291 86.1956 198.595 86.8144C198.946 87.5432 199.12 88.0042 199.12 88.0042C199.12 88.0042 199.795 90.7487 201.415 89.9941C203.048 89.2187 204.566 85.6346 204.566 85.6346C204.566 85.6346 208.502 77.7667 207.976 75.0522C207.795 74.1722 207.565 72.7095 206.535 71.2006C206.359 70.9328 205.065 69.5483 203.045 68.9914C202.687 68.8956 202.32 68.7671 201.974 68.6505C198.1 67.1062 191.698 68.508 191.098 68.6881Z" fill="white"/>
<path d="M237.957 138.742C238.936 138.477 241.722 137.231 242.168 135.743C242.368 135.11 241.693 134.084 241.325 133.816C240.997 133.571 240.186 133.02 239.571 132.415C239.081 131.689 239.251 130.679 239.969 130.151L240.317 129.882C240.317 129.882 254.464 119.264 256.59 108.855C258.565 99.1344 257.759 94.0418 253.244 85.2565C249.74 78.4407 238.109 74.1081 235.988 74.823C233.879 75.5172 228.82 75.1178 223.23 80.8395C218.945 85.2086 216.201 89.0548 213.229 94.4876C215.322 98.6882 217.59 102.824 219.695 107.004C221.124 104.864 222.063 103.189 222.354 102.637C226.383 95.5155 231.02 90.4902 237.463 89.6383C245.017 88.6251 249.083 99.8109 243.865 107.465C238.41 115.482 235.481 117.835 232.099 120.925C231.577 121.4 230.764 121.235 230.46 120.616C230.109 119.887 229.934 119.426 229.934 119.426C229.934 119.426 229.26 116.682 227.64 117.436C226.007 118.212 224.489 121.796 224.489 121.796C224.489 121.796 220.552 129.664 221.079 132.378C221.26 133.258 221.49 134.721 222.519 136.23C222.695 136.498 223.99 137.882 226.01 138.439C226.368 138.535 226.735 138.663 227.08 138.78C230.934 140.312 237.336 138.91 237.957 138.742V138.742Z" fill="white"/>
</g>
</g>
<defs>
<linearGradient id="paint0_linear_18_224" x1="215" y1="0" x2="215" y2="932" gradientUnits="userSpaceOnUse">
<stop offset="0.494792" stop-color="#FFB13C"/>
<stop offset="1" stop-color="#F2EBC5"/>
</linearGradient>
<clipPath id="clip0_18_224">
<rect width="430" height="932" fill="white"/>
</clipPath>
<clipPath id="clip1_18_224">
<rect width="79.9955" height="75.5513" fill="white" transform="translate(198.776 51) rotate(30)"/>
</clipPath>
</defs>
</svg>
